<?xml version="1.0" encoding="UTF-8" standalone="no"?>
<svg width="220px" height="220px" viewBox="0 0 220 220" version="1.1" xmlns="http://www.w3.org/2000/svg" xmlns:xlink="http://www.w3.org/1999/xlink">
    <!-- Generator: Sketch 43.2 (39069) - http://www.bohemiancoding.com/sketch -->
    <title>Artboard</title>
    <desc>Created with Sketch.</desc>
    <defs></defs>
    <g id="Page-1" stroke="none" stroke-width="1" fill="none" fill-rule="evenodd">
        <g id="Artboard">
            <g id="Group-2" transform="translate(10.000000, 10.000000)">
                <circle id="Oval" fill="#38464D" opacity="0.82421875" cx="100" cy="100" r="100"></circle>
                <circle id="Oval" fill="#38464D" cx="100" cy="100" r="87.254902"></circle>
                <path d="M42.0715686,103.144118 L35.5862745,103.144118 L35.5862745,90.4411765 L32.2921569,90.4411765 L32.2921569,105.882353 L42.0715686,105.882353 L42.0715686,103.144118 Z M60.7382353,105.882353 L60.7382353,90.4411765 L57.4441176,90.4411765 L57.4441176,105.882353 L60.7382353,105.882353 Z M92.004902,98.1617647 C92.004902,100.117647 91.3872549,101.805882 90.3372549,103.102941 L91.7166667,104.482353 L89.6372549,106.561765 L88.072549,104.997059 C86.8784314,105.635294 85.4784314,105.985294 83.954902,105.985294 C79.4254902,105.985294 75.904902,102.855882 75.904902,98.1617647 C75.904902,93.4676471 79.4254902,90.3382353 83.954902,90.3382353 C88.4843137,90.3382353 92.004902,93.4676471 92.004902,98.1617647 Z M83.954902,103.247059 C84.6754902,103.247059 85.354902,103.102941 85.9313725,102.855882 L84.1607843,101.085294 L86.2401961,99.0058824 L88.072549,100.838235 C88.4843137,100.076471 88.7107843,99.1705882 88.7107843,98.1617647 C88.7107843,95.2382353 86.7960784,93.0764706 83.954902,93.0764706 C81.1137255,93.0764706 79.1990196,95.2382353 79.1990196,98.1617647 C79.1990196,101.105882 81.1137255,103.247059 83.954902,103.247059 Z M119.936275,90.4411765 L116.642157,90.4411765 L116.642157,99.7264706 C116.642157,100.488235 116.518627,103.329412 113.57451,103.329412 C110.630392,103.329412 110.465686,100.488235 110.465686,99.7264706 L110.465686,90.4411765 L107.171569,90.4411765 L107.171569,99.7264706 C107.171569,102.258824 108.242157,106.067647 113.57451,106.067647 C118.927451,106.067647 119.936275,102.258824 119.936275,99.7264706 L119.936275,90.4411765 Z M139.014706,105.882353 L139.014706,90.4411765 L135.720588,90.4411765 L135.720588,105.882353 L139.014706,105.882353 Z M168.32549,98.1617647 C168.32549,102.423529 164.969608,105.861765 160.790196,105.882353 L154.593137,105.882353 L154.593137,90.4411765 L160.790196,90.4411765 C164.969608,90.4617647 168.32549,93.9205882 168.32549,98.1617647 Z M160.769608,103.144118 C163.301961,103.123529 165.031373,100.652941 165.031373,98.1617647 C165.031373,95.6705882 163.281373,93.2205882 160.769608,93.1794118 L157.887255,93.1794118 L157.887255,103.144118 L160.769608,103.144118 Z" id="LIQUID" fill="#FFFFFF"></path>
                <g id="Group" transform="translate(55.882353, 119.607843)" fill="#FFFFFF">
                    <path d="M3.5747549,3.65343137 C2.77181373,3.33431373 1.70122549,2.99460784 1.70122549,2.06813725 C1.70122549,1.40931373 2.30857843,1.01813725 3.00857843,1.01813725 C3.90416667,1.01813725 4.64534314,1.5122549 5.13946078,2.04754902 L5.90122549,1.31666667 C5.18063725,0.524019608 4.2747549,0.0710784314 3.14240196,0.0710784314 C1.53651961,0.0710784314 0.558578431,1.14166667 0.558578431,2.17107843 C0.558578431,3.47843137 1.75269608,3.98284314 2.75122549,4.40490196 C3.96593137,4.91960784 4.67622549,5.19754902 4.67622549,5.86666667 C4.67622549,6.62843137 3.93504902,6.9372549 3.03946078,6.94754902 C2.21593137,6.94754902 1.38210784,6.46372549 0.939460784,5.90784314 L0.177696078,6.66960784 C0.898284314,7.45196078 2.02034314,7.90490196 3.03946078,7.89460784 C4.42916667,7.88431373 5.81887255,7.2872549 5.81887255,5.79460784 C5.81887255,4.62107843 4.64534314,4.0754902 3.5747549,3.65343137 Z M22.4992647,0.12254902 L21.3566176,0.12254902 L21.3566176,3.50931373 L17.7227941,3.50931373 L17.7227941,0.12254902 L16.5801471,0.12254902 L16.5801471,7.84313725 L17.7227941,7.84313725 L17.7227941,4.45637255 L21.3566176,4.45637255 L21.3566176,7.84313725 L22.4992647,7.84313725 L22.4992647,0.12254902 Z M38.6546569,7.84313725 L37.964951,6.08284314 L34.7120098,6.08284314 L34.0223039,7.84313725 L32.8178922,7.84313725 L35.9884804,0.12254902 L36.6884804,0.12254902 L39.8590686,7.84313725 L38.6546569,7.84313725 Z M35.082598,5.13578431 L37.5943627,5.13578431 L36.3384804,1.95490196 L35.082598,5.13578431 Z M56.0041667,2.86078431 C56.0041667,4.03431373 55.3247549,4.98137255 54.3468137,5.39313725 L56.0041667,7.84313725 L54.6968137,7.84313725 L53.1835784,5.59901961 L51.4232843,5.59901961 L51.4232843,7.84313725 L50.2806373,7.84313725 L50.2806373,0.12254902 L53.2762255,0.12254902 C54.7894608,0.132843137 56.0041667,1.30637255 56.0041667,2.86078431 Z M51.4232843,4.65196078 L53.2659314,4.65196078 C54.1409314,4.65196078 54.8615196,3.91078431 54.8615196,2.86078431 C54.8615196,1.82107843 54.1409314,1.06960784 53.2659314,1.06960784 L51.4232843,1.06960784 L51.4232843,4.65196078 Z M71.9639706,6.89607843 L67.7742647,6.89607843 L67.7742647,4.3122549 L71.0375,4.3122549 L71.0375,3.35490196 L67.7742647,3.35490196 L67.7742647,1.06960784 L71.7683824,1.06960784 L71.7683824,0.12254902 L66.6316176,0.12254902 L66.6316176,7.84313725 L71.9639706,7.84313725 L71.9639706,6.89607843 Z M85.782598,3.65343137 C84.9796569,3.33431373 83.9090686,2.99460784 83.9090686,2.06813725 C83.9090686,1.40931373 84.5164216,1.01813725 85.2164216,1.01813725 C86.1120098,1.01813725 86.8531863,1.5122549 87.3473039,2.04754902 L88.1090686,1.31666667 C87.3884804,0.524019608 86.482598,0.0710784314 85.3502451,0.0710784314 C83.7443627,0.0710784314 82.7664216,1.14166667 82.7664216,2.17107843 C82.7664216,3.47843137 83.9605392,3.98284314 84.9590686,4.40490196 C86.1737745,4.91960784 86.8840686,5.19754902 86.8840686,5.86666667 C86.8840686,6.62843137 86.1428922,6.9372549 85.2473039,6.94754902 C84.4237745,6.94754902 83.589951,6.46372549 83.1473039,5.90784314 L82.3855392,6.66960784 C83.1061275,7.45196078 84.2281863,7.90490196 85.2473039,7.89460784 C86.6370098,7.88431373 88.0267157,7.2872549 88.0267157,5.79460784 C88.0267157,4.62107843 86.8531863,4.0754902 85.782598,3.65343137 Z" id="SHARES" style="mix-blend-mode: overlay;"></path>
                    <path d="M3.5747549,3.65343137 C2.77181373,3.33431373 1.70122549,2.99460784 1.70122549,2.06813725 C1.70122549,1.40931373 2.30857843,1.01813725 3.00857843,1.01813725 C3.90416667,1.01813725 4.64534314,1.5122549 5.13946078,2.04754902 L5.90122549,1.31666667 C5.18063725,0.524019608 4.2747549,0.0710784314 3.14240196,0.0710784314 C1.53651961,0.0710784314 0.558578431,1.14166667 0.558578431,2.17107843 C0.558578431,3.47843137 1.75269608,3.98284314 2.75122549,4.40490196 C3.96593137,4.91960784 4.67622549,5.19754902 4.67622549,5.86666667 C4.67622549,6.62843137 3.93504902,6.9372549 3.03946078,6.94754902 C2.21593137,6.94754902 1.38210784,6.46372549 0.939460784,5.90784314 L0.177696078,6.66960784 C0.898284314,7.45196078 2.02034314,7.90490196 3.03946078,7.89460784 C4.42916667,7.88431373 5.81887255,7.2872549 5.81887255,5.79460784 C5.81887255,4.62107843 4.64534314,4.0754902 3.5747549,3.65343137 Z M22.4992647,0.12254902 L21.3566176,0.12254902 L21.3566176,3.50931373 L17.7227941,3.50931373 L17.7227941,0.12254902 L16.5801471,0.12254902 L16.5801471,7.84313725 L17.7227941,7.84313725 L17.7227941,4.45637255 L21.3566176,4.45637255 L21.3566176,7.84313725 L22.4992647,7.84313725 L22.4992647,0.12254902 Z M38.6546569,7.84313725 L37.964951,6.08284314 L34.7120098,6.08284314 L34.0223039,7.84313725 L32.8178922,7.84313725 L35.9884804,0.12254902 L36.6884804,0.12254902 L39.8590686,7.84313725 L38.6546569,7.84313725 Z M35.082598,5.13578431 L37.5943627,5.13578431 L36.3384804,1.95490196 L35.082598,5.13578431 Z M56.0041667,2.86078431 C56.0041667,4.03431373 55.3247549,4.98137255 54.3468137,5.39313725 L56.0041667,7.84313725 L54.6968137,7.84313725 L53.1835784,5.59901961 L51.4232843,5.59901961 L51.4232843,7.84313725 L50.2806373,7.84313725 L50.2806373,0.12254902 L53.2762255,0.12254902 C54.7894608,0.132843137 56.0041667,1.30637255 56.0041667,2.86078431 Z M51.4232843,4.65196078 L53.2659314,4.65196078 C54.1409314,4.65196078 54.8615196,3.91078431 54.8615196,2.86078431 C54.8615196,1.82107843 54.1409314,1.06960784 53.2659314,1.06960784 L51.4232843,1.06960784 L51.4232843,4.65196078 Z M71.9639706,6.89607843 L67.7742647,6.89607843 L67.7742647,4.3122549 L71.0375,4.3122549 L71.0375,3.35490196 L67.7742647,3.35490196 L67.7742647,1.06960784 L71.7683824,1.06960784 L71.7683824,0.12254902 L66.6316176,0.12254902 L66.6316176,7.84313725 L71.9639706,7.84313725 L71.9639706,6.89607843 Z M85.782598,3.65343137 C84.9796569,3.33431373 83.9090686,2.99460784 83.9090686,2.06813725 C83.9090686,1.40931373 84.5164216,1.01813725 85.2164216,1.01813725 C86.1120098,1.01813725 86.8531863,1.5122549 87.3473039,2.04754902 L88.1090686,1.31666667 C87.3884804,0.524019608 86.482598,0.0710784314 85.3502451,0.0710784314 C83.7443627,0.0710784314 82.7664216,1.14166667 82.7664216,2.17107843 C82.7664216,3.47843137 83.9605392,3.98284314 84.9590686,4.40490196 C86.1737745,4.91960784 86.8840686,5.19754902 86.8840686,5.86666667 C86.8840686,6.62843137 86.1428922,6.9372549 85.2473039,6.94754902 C84.4237745,6.94754902 83.589951,6.46372549 83.1473039,5.90784314 L82.3855392,6.66960784 C83.1061275,7.45196078 84.2281863,7.90490196 85.2473039,7.89460784 C86.6370098,7.88431373 88.0267157,7.2872549 88.0267157,5.79460784 C88.0267157,4.62107843 86.8531863,4.0754902 85.782598,3.65343137 Z" id="SHARES" style="mix-blend-mode: overlay;"></path>
                </g>
            </g>
        </g>
    </g>
</svg>